Coordinates
version=1
nRows=14
nColumns=63
inDegrees=yes

Units are S.I. units (second, meters, Newtons, ...)
If the header above contains a line with 'inDegrees', this indicates whether rotational values are in degrees (yes) or radians (no).

endheader
time	pelvis_tilt	pelvis_list	pelvis_rotation	pelvis_tx	pelvis_ty	pelvis_tz	hip_flexion_r	hip_adduction_r	hip_rotation_r	knee_angle_r	knee_angle_r_beta	ankle_angle_r	subtalar_angle_r	mtp_angle_r	hip_flexion_l	hip_adduction_l	hip_rotation_l	knee_angle_l	knee_angle_l_beta	ankle_angle_l	subtalar_angle_l	mtp_angle_l	L5_S1_Flex_Ext	L5_S1_Lat_Bending	L5_S1_axial_rotation	L4_L5_Flex_Ext	L4_L5_Lat_Bending	L4_L5_axial_rotation	L3_L4_Flex_Ext	L3_L4_Lat_Bending	L3_L4_axial_rotation	L2_L3_Flex_Ext	L2_L3_Lat_Bending	L2_L3_axial_rotation	L1_L2_Flex_Ext	L1_L2_Lat_Bending	L1_L2_axial_rotation	L1_T12_Flex_Ext	L1_T12_Lat_Bending	L1_T12_axial_rotation	Abs_r3	Abs_r2	Abs_r1	Abs_t1	Abs_t2	neck_flexion	neck_bending	neck_rotation	arm_flex_r	arm_add_r	arm_rot_r	elbow_flex_r	pro_sup_r	wrist_flex_r	wrist_dev_r	arm_flex_l	arm_add_l	arm_rot_l	elbow_flex_l	pro_sup_l	wrist_flex_l	wrist_dev_l
4.300000	6.195746	0.598800	92.393160	0.270757	0.719212	0.588971	-3.189060	4.766333	11.287512	3.764473	0.065702	27.786679	-7.739674	0.000000	-4.419520	-8.364099	3.446738	0.332927	0.005811	36.751534	4.585544	0.000000	-0.498708	0.885444	-0.043762	-0.926151	1.177640	-0.046497	-0.819327	2.152868	-0.046497	-0.569973	2.152868	-0.038292	-0.463100	1.805597	-0.035557	-0.284962	1.371552	-0.032822	-3.562222	10.016316	-0.243393	0.000000	0.000000	24.451637	1.722773	7.648949	-3.481813	-24.296137	133.552977	5.997012	3.713262	-5.084256	0.475821	-0.131682	-20.147534	171.652482	5.476715	6.605459	-8.464124	-4.023211
4.316667	6.355730	1.123716	92.228301	0.271074	0.720076	0.587026	-4.050081	4.939635	11.537091	3.418507	0.059664	27.369988	-7.891722	0.000000	-5.214485	-8.566878	3.786457	0.321445	0.005610	36.584491	3.925161	0.000000	-0.506339	0.937667	-0.060033	-0.940321	1.247098	-0.063785	-0.831864	2.279845	-0.063785	-0.578694	2.279845	-0.052529	-0.470186	1.912092	-0.048777	-0.289322	1.452447	-0.045025	-3.616725	10.607082	-0.333886	0.000000	0.000000	23.981210	1.268592	8.525259	-3.945133	-23.073197	136.335231	6.166212	4.644977	-4.846880	-0.450366	0.018967	-17.377939	175.357196	6.130267	7.455745	-8.048574	-3.367451
4.333333	6.502488	1.671911	92.111157	0.271182	0.721001	0.584991	-4.971963	5.084886	11.979508	3.004994	0.052447	26.831028	-8.295760	0.000000	-6.043981	-8.750595	4.222266	0.301525	0.005263	36.370260	3.175691	0.000000	-0.517307	0.991520	-0.082259	-0.960690	1.318721	-0.087401	-0.849883	2.410781	-0.087401	-0.591230	2.410781	-0.071977	-0.480371	2.021907	-0.066836	-0.295589	1.535864	-0.061694	-3.695069	11.216269	-0.457502	0.000000	0.000000	23.475368	0.740211	9.386517	-4.367821	-22.202991	137.374725	6.324387	4.550639	-4.681261	-1.482666	0.027916	-14.857686	176.162394	6.712194	8.262941	-7.918273	-2.652569
4.350000	6.660454	2.205153	92.034386	0.271118	0.721832	0.583003	-5.860047	5.230178	12.312634	2.617202	0.045679	26.379510	-8.511382	0.000000	-6.846673	-8.938991	4.736470	0.292010	0.005097	36.157646	2.361117	0.000000	-0.529341	1.046600	-0.105132	-0.983039	1.391978	-0.111703	-0.869654	2.544703	-0.111703	-0.604984	2.544703	-0.091990	-0.491546	2.134227	-0.085420	-0.302465	1.621183	-0.078849	-3.781029	11.839348	-0.584713	0.000000	0.000000	23.000338	0.178592	10.139088	-4.881785	-21.591862	135.604202	6.641622	4.451816	-4.729543	-2.389193	0.092319	-12.852882	177.865847	6.882305	9.513397	-8.421216	-1.841412
4.366667	6.815372	2.720767	92.006594	0.270936	0.722489	0.581138	-6.711608	5.366583	12.780277	2.242073	0.039132	25.943597	-8.901861	0.000000	-7.614086	-9.122078	5.333500	0.281632	0.004915	35.963195	1.483458	0.000000	-0.545380	1.097388	-0.130551	-1.012826	1.459527	-0.138710	-0.896005	2.668190	-0.138710	-0.623315	2.668190	-0.114232	-0.506440	2.237795	-0.106073	-0.311630	1.699855	-0.097913	-3.895596	12.413878	-0.726085	0.000000	0.000000	22.622428	-0.359924	10.703927	-5.497589	-21.181904	131.044606	7.164881	4.265574	-4.943862	-3.088593	0.205620	-11.191770	179.884388	6.929274	11.086219	-9.202484	-0.756847
4.383333	6.958639	3.209755	92.032685	0.270699	0.722956	0.579467	-7.499801	5.492867	13.325229	1.905893	0.033264	25.561631	-9.402865	0.000000	-8.327266	-9.296601	6.006456	0.271065	0.004731	35.788254	0.558875	0.000000	-0.565377	1.140776	-0.159881	-1.049961	1.517233	-0.169874	-0.928857	2.773684	-0.169874	-0.646169	2.773684	-0.139896	-0.525009	2.326271	-0.129904	-0.323056	1.767063	-0.119911	-4.038429	12.904691	-0.889212	0.000000	0.000000	22.353386	-0.846728	11.060645	-6.195604	-21.004345	124.075625	7.945853	3.998272	-5.268602	-3.527278	0.326629	-9.859971	181.558944	6.968430	12.779576	-10.103439	0.398252
4.400000	7.092722	3.659146	92.109503	0.270432	0.723262	0.578005	-8.204336	5.615566	13.927623	1.618897	0.028255	25.231608	-9.996835	0.000000	-8.967521	-9.466718	6.746841	0.260964	0.004555	35.626313	-0.408419	0.000000	-0.587211	1.177025	-0.193470	-1.090510	1.565444	-0.205562	-0.964729	2.861819	-0.205562	-0.671124	2.861819	-0.169286	-0.545284	2.400190	-0.157194	-0.335533	1.823212	-0.145102	-4.194392	13.314745	-1.076020	0.000000	0.000000	22.173937	-1.279702	11.242118	-6.858940	-21.135453	115.742024	9.000165	3.692788	-5.591830	-3.700615	0.444919	-8.830938	182.942464	7.005668	14.415383	-11.060342	1.488642
4.416667	7.213689	4.053466	92.232658	0.270164	0.723466	0.576732	-8.813565	5.733481	14.573014	1.374999	0.023998	24.930555	-10.666239	0.000000	-9.515539	-9.630203	7.454735	0.252133	0.004401	35.486006	-1.293726	0.000000	-0.607688	1.205879	-0.233148	-1.128537	1.603819	-0.247719	-0.998370	2.931973	-0.247719	-0.694527	2.931973	-0.204004	-0.564299	2.459028	-0.189432	-0.347233	1.867906	-0.174861	-4.340654	13.641140	-1.296697	0.000000	0.000000	22.056369	-1.649517	11.301254	-7.177526	-21.463671	108.778889	10.080797	3.413891	-5.720061	-3.781156	0.546645	-8.100554	183.979681	7.051048	15.835869	-11.994011	2.388425
4.433333	7.307859	4.379320	92.411962	0.269901	0.723623	0.575619	-9.319764	5.838917	15.212869	1.171654	0.020449	24.635763	-11.387115	0.000000	-9.953633	-9.775985	8.065060	0.245602	0.004287	35.374054	-1.994725	0.000000	-0.624088	1.226328	-0.279924	-1.158993	1.631017	-0.297420	-1.025314	2.981695	-0.297420	-0.713270	2.981695	-0.244934	-0.579528	2.500729	-0.227438	-0.356604	1.899582	-0.209943	-4.457796	13.872470	-1.556855	0.000000	0.000000	21.983482	-1.960731	11.271821	-7.274227	-21.759782	104.120278	10.926610	3.121393	-5.648268	-3.824119	0.611375	-7.659412	184.369841	7.122036	17.048335	-12.802420	3.037235
4.450000	7.372231	4.629628	92.636506	0.269676	0.723777	0.574648	-9.719344	5.929483	15.780822	1.007140	0.017578	24.352460	-12.080793	0.000000	-10.274008	-9.902140	8.531391	0.241034	0.004207	35.298549	-2.453567	0.000000	-0.634392	1.238109	-0.329955	-1.178129	1.646685	-0.350577	-1.042242	3.010338	-0.350577	-0.725046	3.010338	-0.288710	-0.589096	2.524752	-0.268088	-0.362491	1.917831	-0.247466	-4.531396	14.005735	-1.835110	0.000000	0.000000	21.932827	-2.193101	11.169641	-7.254274	-21.989734	101.757661	11.470396	2.820573	-5.412470	-3.793091	0.648600	-7.445921	184.561325	7.210046	17.915834	-13.416165	3.434931
4.466667	7.342539	4.810637	92.928213	0.269543	0.723957	0.573793	-10.030796	5.951505	16.230191	0.882160	0.015397	24.114934	-12.739960	0.000000	-10.485300	-9.950273	8.919415	0.238919	0.004170	35.240017	-2.706729	0.000000	-0.639486	1.231981	-0.383380	-1.187590	1.638535	-0.407341	-1.050612	2.995438	-0.407341	-0.730869	2.995438	-0.335458	-0.593827	2.512255	-0.311496	-0.365402	1.908338	-0.287535	-4.567785	13.936414	-2.132246	0.000000	0.000000	21.895283	-2.365648	10.894286	-7.166158	-22.085928	101.535648	11.675735	2.650530	-5.075474	-3.661295	0.642012	-7.475860	184.233459	7.299737	18.692421	-13.767656	3.574482
4.483333	7.226700	4.940438	93.276329	0.269540	0.724178	0.573050	-10.272616	5.915462	16.451475	0.796690	0.013905	23.959339	-13.232020	0.000000	-10.606741	-9.930827	9.142699	0.238500	0.004163	35.219804	-2.646471	0.000000	-0.640790	1.208618	-0.435538	-1.190011	1.607461	-0.462759	-1.052754	2.938633	-0.462759	-0.732359	2.938633	-0.381096	-0.595037	2.464613	-0.353875	-0.366147	1.872149	-0.326654	-4.577098	13.672123	-2.422333	0.000000	0.000000	21.853762	-2.428453	10.475387	-7.017877	-22.026462	103.531088	11.528307	2.822309	-4.737722	-3.417439	0.594345	-7.674699	184.371874	7.308949	19.016213	-13.849869	3.537293
4.500000	7.020132	5.036653	93.673691	0.269709	0.724426	0.572429	-10.464494	5.819310	16.430181	0.746812	0.013034	23.900365	-13.554512	0.000000	-10.656381	-9.839582	9.222402	0.240322	0.004194	35.241026	-2.293819	0.000000	-0.641088	1.166774	-0.482481	-1.190564	1.551810	-0.512636	-1.053243	2.836895	-0.512636	-0.732699	2.836895	-0.422171	-0.595314	2.379286	-0.392016	-0.366318	1.807333	-0.361861	-4.579227	13.198782	-2.683413	0.000000	0.000000	21.832598	-2.354194	9.889519	-6.806306	-21.802987	107.380831	11.087722	3.272897	-4.506190	-3.055169	0.515307	-8.042847	184.750704	7.246851	19.026412	-13.755502	3.380348
4.516667	6.724468	5.118755	94.077663	0.270104	0.724683	0.571876	-10.638339	5.655048	16.237708	0.716261	0.012501	23.941916	-13.724013	0.000000	-10.670803	-9.670365	9.115538	0.242575	0.004234	35.309016	-1.655686	0.000000	-0.640465	1.106430	-0.517619	-1.189407	1.471552	-0.549970	-1.052220	2.690175	-0.549970	-0.731987	2.690175	-0.452916	-0.594736	2.256233	-0.420565	-0.365962	1.713861	-0.388214	-4.574777	12.516162	-2.878840	0.000000	0.000000	21.798815	-2.158859	9.107929	-6.517172	-21.421677	113.261454	10.357767	4.020498	-4.354673	-2.626811	0.407762	-8.572453	185.088377	7.132444	18.834411	-13.463538	3.180383
